<?xml version="1.0" encoding="UTF-8"?>
<svg width="26px" height="26px" viewBox="0 0 26 26" version="1.1" xmlns="http://www.w3.org/2000/svg" xmlns:xlink="http://www.w3.org/1999/xlink">
    <!-- Generator: Sketch 48.2 (47327) - http://www.bohemiancoding.com/sketch -->
    <title>svg/Icons/Cog</title>
    <desc>Created with Sketch.</desc>
    <defs>
        <path d="M19.9156655,10.2626456 C20.0147194,10.4086717 20.1802811,10.4992843 20.3583333,10.5 L20.5,10.5 C21.8807119,10.5 23,11.6192881 23,13 C23,14.3807119 21.8807119,15.5 20.5,15.5 L20.4283236,15.4999934 C20.2124307,15.5008544 20.0176642,15.6298389 19.9326165,15.8282762 C19.8396455,16.0390512 19.8825457,16.2756522 20.0309223,16.427411 L20.0805945,16.4770833 C20.5500371,16.946004 20.8138111,17.5823102 20.8138111,18.2458333 C20.8138111,18.9093565 20.5500371,19.5456627 20.08125,20.0139278 C19.6123294,20.4833704 18.9760231,20.7471444 18.3125,20.7471444 C17.6489769,20.7471444 17.0126706,20.4833704 16.5440777,20.0142557 L16.5006125,19.9707188 C16.3423189,19.815879 16.1057179,19.7729788 15.8949429,19.8659499 C15.6965055,19.9509975 15.5675211,20.145764 15.5666667,20.3583333 L15.5666667,20.5 C15.5666667,21.8807119 14.4473785,23 13.0666667,23 C11.6859548,23 10.5666667,21.8807119 10.5666667,20.5 C10.5616934,20.2221316 10.4210949,20.025554 10.1635289,19.9290522 C9.96094881,19.8396455 9.72434776,19.8825457 9.57258898,20.0309223 L9.52291667,20.0805945 C9.05399602,20.5500371 8.41768979,20.8138111 7.75416667,20.8138111 C7.09064355,20.8138111 6.45433731,20.5500371 5.98607221,20.08125 C5.51662961,19.6123294 5.25285557,18.9760231 5.25285557,18.3125 C5.25285557,17.6489769 5.51662961,17.0126706 5.98574435,16.5440777 L6.02928118,16.5006125 C6.18412099,16.3423189 6.22702118,16.1057179 6.13405014,15.8949429 C6.04900248,15.6965055 5.85423595,15.5675211 5.64166667,15.5666667 L5.5,15.5666667 C4.11928813,15.5666667 3,14.4473785 3,13.0666667 C3,11.6859548 4.11928813,10.5666667 5.5,10.5666667 C5.77786838,10.5616934 5.97444599,10.4210949 6.07094785,10.1635289 C6.16035451,9.96094881 6.11745432,9.72434776 5.96907768,9.57258898 L5.91940555,9.52291667 C5.44996294,9.05399602 5.18618891,8.41768979 5.18618891,7.75416667 C5.18618891,7.09064355 5.44996294,6.45433731 5.91875,5.98607221 C6.38767064,5.51662961 7.02397688,5.25285557 7.6875,5.25285557 C8.35102312,5.25285557 8.98732936,5.51662961 9.45592232,5.98574435 L9.49938747,6.02928118 C9.65768109,6.18412099 9.89428214,6.22702118 10.0968622,6.13761451 C10.1502554,6.11404998 10.2058282,6.09622426 10.2626456,6.08433455 C10.4086717,5.98528062 10.4992843,5.81971892 10.5,5.64166667 L10.5,5.5 C10.5,4.11928813 11.6192881,3 13,3 C14.3807119,3 15.5,4.11928813 15.5,5.5 L15.4999934,5.57167641 C15.5008544,5.78756929 15.6298389,5.98233581 15.8364711,6.07094785 C16.0390512,6.16035451 16.2756522,6.11745432 16.427411,5.96907768 L16.4770833,5.91940555 C16.946004,5.44996294 17.5823102,5.18618891 18.2458333,5.18618891 C18.9093565,5.18618891 19.5456627,5.44996294 20.0139278,5.91875 C20.4833704,6.38767064 20.7471444,7.02397688 20.7471444,7.6875 C20.7471444,8.35102312 20.4833704,8.98732936 20.0142557,9.45592232 L19.9707188,9.49938747 C19.815879,9.65768109 19.7729788,9.89428214 19.8623855,10.0968622 C19.88595,10.1502554 19.9037757,10.2058282 19.9156655,10.2626456 Z M10.6081549,7.72628508 C9.82059817,8.00236504 8.93719152,7.81079764 8.32741102,7.21425565 L8.27708333,7.16392779 C8.12077645,7.00744692 7.90867437,6.91952224 7.6875,6.91952224 C7.46632563,6.91952224 7.25422355,7.00744692 7.09726112,7.16458333 C6.94078025,7.32089021 6.85285557,7.53299229 6.85285557,7.75416667 C6.85285557,7.97534104 6.94078025,8.18744312 7.09758898,8.34407768 L7.15405215,8.40061253 C7.78532214,9.04596347 7.96022292,10.0105677 7.61544675,10.7876509 C7.30244538,11.6386914 6.50101358,12.2119009 5.575,12.2333333 L5.5,12.2333333 C5.03976271,12.2333333 4.66666667,12.6064294 4.66666667,13.0666667 C4.66666667,13.526904 5.03976271,13.9 5.5,13.9 L5.64499026,13.9000066 C6.52516892,13.9035171 7.31921705,14.4293768 7.66238549,15.2301955 C8.02688958,16.0560989 7.85198881,17.0207032 7.21425565,17.672589 L7.16392779,17.7229167 C7.00744692,17.8792235 6.91952224,18.0913256 6.91952224,18.3125 C6.91952224,18.5336744 7.00744692,18.7457765 7.16458333,18.9027389 C7.32089021,19.0592197 7.53299229,19.1471444 7.75416667,19.1471444 C7.97534104,19.1471444 8.18744312,19.0592197 8.34407768,18.902411 L8.40061253,18.8459478 C9.04596347,18.2146779 10.0105677,18.0397771 10.7876509,18.3845532 C11.6386914,18.6975546 12.2119009,19.4989864 12.2333333,20.425 L12.2333333,20.5 C12.2333333,20.9602373 12.6064294,21.3333333 13.0666667,21.3333333 C13.526904,21.3333333 13.9,20.9602373 13.9,20.5 L13.9000066,20.3550097 C13.9035171,19.4748311 14.4293768,18.6807829 15.2301955,18.3376145 C16.0560989,17.9731104 17.0207032,18.1480112 17.672589,18.7857443 L17.7229167,18.8360722 C17.8792235,18.9925531 18.0913256,19.0804778 18.3125,19.0804778 C18.5336744,19.0804778 18.7457765,18.9925531 18.9027389,18.8354167 C19.0592197,18.6791098 19.1471444,18.4670077 19.1471444,18.2458333 C19.1471444,18.024659 19.0592197,17.8125569 18.902411,17.6559223 L18.8459478,17.5993875 C18.2146779,16.9540365 18.0397771,15.9894323 18.4042812,15.1635289 C18.7474496,14.3627101 19.5414977,13.8368504 20.425,13.8333333 L20.5,13.8333333 C20.9602373,13.8333333 21.3333333,13.4602373 21.3333333,13 C21.3333333,12.5397627 20.9602373,12.1666667 20.5,12.1666667 L20.3550097,12.16666 C19.4748311,12.1631496 18.6807829,11.6372899 18.3340501,10.8282762 C18.3038704,10.7578594 18.2836137,10.6837794 18.2737149,10.6081549 C17.997635,9.82059817 18.1892024,8.93719152 18.7857443,8.32741102 L18.8360722,8.27708333 C18.9925531,8.12077645 19.0804778,7.90867437 19.0804778,7.6875 C19.0804778,7.46632563 18.9925531,7.25422355 18.8354167,7.09726112 C18.6791098,6.94078025 18.4670077,6.85285557 18.2458333,6.85285557 C18.024659,6.85285557 17.8125569,6.94078025 17.6559223,7.09758898 L17.5993875,7.15405215 C16.9540365,7.78532214 15.9894323,7.96022292 15.1717238,7.59928319 C14.3627101,7.25255038 13.8368504,6.45850225 13.8333333,5.575 L13.8333333,5.5 C13.8333333,5.03976271 13.4602373,4.66666667 13,4.66666667 C12.5397627,4.66666667 12.1666667,5.03976271 12.1666667,5.5 L12.16666,5.64499026 C12.1631496,6.52516892 11.6372899,7.31921705 10.8282762,7.66594986 C10.7578594,7.69612957 10.6837794,7.71638628 10.6081549,7.72628508 Z M13,16.3333333 C11.1590508,16.3333333 9.66666667,14.8409492 9.66666667,13 C9.66666667,11.1590508 11.1590508,9.66666667 13,9.66666667 C14.8409492,9.66666667 16.3333333,11.1590508 16.3333333,13 C16.3333333,14.8409492 14.8409492,16.3333333 13,16.3333333 Z M13,14.6666667 C13.9204746,14.6666667 14.6666667,13.9204746 14.6666667,13 C14.6666667,12.0795254 13.9204746,11.3333333 13,11.3333333 C12.0795254,11.3333333 11.3333333,12.0795254 11.3333333,13 C11.3333333,13.9204746 12.0795254,14.6666667 13,14.6666667 Z" id="path-1"></path>
    </defs>
    <g id="Symbols" stroke="none" stroke-width="1" fill="none" fill-rule="evenodd">
        <g id="Icons/Cog">
            <rect id="base" opacity="0" x="0" y="0" width="26" height="26"></rect>
            <mask id="mask-2" fill="white">
                <use xlink:href="#path-1"></use>
            </mask>
            <use id="Shape" fill="#000000" fill-rule="nonzero" xlink:href="#path-1"></use>
            <g id="Colors/Text" mask="url(#mask-2)" fill="#FFFFFF">
                <rect id="Color" x="0" y="0" width="26" height="26"></rect>
            </g>
        </g>
    </g>
</svg>