<?xml version="1.0" encoding="UTF-8"?>
<svg width="26px" height="26px" viewBox="0 0 26 26" version="1.1" xmlns="http://www.w3.org/2000/svg" xmlns:xlink="http://www.w3.org/1999/xlink">
    <!-- Generator: Sketch 48.2 (47327) - http://www.bohemiancoding.com/sketch -->
    <title>svg/Icons/Quatation</title>
    <desc>Created with Sketch.</desc>
    <defs>
        <path d="M12,5 L12,21 L14,21 L14,5 L12,5 Z M11,3 L15,3 C15.5522847,3 16,3.44771525 16,4 L16,22 C16,22.5522847 15.5522847,23 15,23 L11,23 C10.4477153,23 10,22.5522847 10,22 L10,4 C10,3.44771525 10.4477153,3 11,3 Z M19,8 L23,8 C23.5522847,8 24,8.44771525 24,9 L24,22 C24,22.5522847 23.5522847,23 23,23 L19,23 C18.4477153,23 18,22.5522847 18,22 L18,9 C18,8.44771525 18.4477153,8 19,8 Z M3,13 L7,13 C7.55228475,13 8,13.4477153 8,14 L8,22 C8,22.5522847 7.55228475,23 7,23 L3,23 C2.44771525,23 2,22.5522847 2,22 L2,14 C2,13.4477153 2.44771525,13 3,13 Z M20,10 L20,21 L22,21 L22,10 L20,10 Z M4,21 L6,21 L6,15 L4,15 L4,21 Z" id="path-1"></path>
    </defs>
    <g id="Symbols" stroke="none" stroke-width="1" fill="none" fill-rule="evenodd">
        <g id="Icons/Quatation">
            <rect id="base" opacity="0" x="0" y="0" width="26" height="26"></rect>
            <mask id="mask-2" fill="white">
                <use xlink:href="#path-1"></use>
            </mask>
            <use id="Shape" fill="#000000" fill-rule="nonzero" xlink:href="#path-1"></use>
            <g id="Colors/Text" mask="url(#mask-2)" fill="#FFFFFF">
                <rect id="Color" x="0" y="0" width="26" height="26"></rect>
            </g>
        </g>
    </g>
</svg>