<?xml version="1.0" encoding="UTF-8"?>
<svg width="32px" height="32px" viewBox="0 0 32 32" version="1.1" xmlns="http://www.w3.org/2000/svg" xmlns:xlink="http://www.w3.org/1999/xlink">
    <!-- Generator: Sketch 48.2 (47327) - http://www.bohemiancoding.com/sketch -->
    <title>svg/Currency/Dash</title>
    <desc>Created with Sketch.</desc>
    <defs></defs>
    <g id="Symbols" stroke="none" stroke-width="1" fill="none" fill-rule="evenodd">
        <g id="Currency/Dash" fill-rule="nonzero">
            <g id="dash">
                <circle id="Oval" fill="#1C75BC" cx="16" cy="16" r="16"></circle>
                <path d="M6.38095238,14.6857143 L14.1142857,14.6857143 L13.1238095,17.6380952 L5.37142857,17.6380952 L6.38095238,14.6857143 Z M9.98095238,9.79047619 C9.98095238,9.79047619 21.1809524,9.79047619 24.3238095,9.79047619 C27.4666667,9.79047619 26.5714286,12.9714286 26.5714286,12.9714286 L22.0190476,12.9714286 L8.97142857,12.9714286 L9.98095238,9.79047619 Z M5.86666667,22.5333333 L6.8952381,19.352381 L19.9238095,19.352381 L24.5333333,19.352381 C24.5333333,19.352381 23.2761905,22.5333333 20.2857143,22.5333333 C17.2952381,22.5333333 5.86666667,22.5333333 5.86666667,22.5333333 Z M22.0190476,12.9714286 L26.5714286,12.9714286 L24.5333333,19.352381 L19.9619048,19.352381 L22.0190476,12.9714286 Z" id="Shape" fill="#FFFFFF"></path>
            </g>
        </g>
    </g>
</svg>