<?xml version="1.0" encoding="UTF-8"?>
<svg width="32px" height="32px" viewBox="0 0 32 32" version="1.1" xmlns="http://www.w3.org/2000/svg" xmlns:xlink="http://www.w3.org/1999/xlink">
    <!-- Generator: Sketch 48.2 (47327) - http://www.bohemiancoding.com/sketch -->
    <title>svg/Currency/EOS</title>
    <desc>Created with Sketch.</desc>
    <defs></defs>
    <g id="Symbols" stroke="none" stroke-width="1" fill="none" fill-rule="evenodd">
        <g id="Currency/EOS">
            <g id="EOS">
                <circle id="Oval" fill="#FFFFFF" fill-rule="nonzero" cx="16" cy="16" r="16"></circle>
                <path d="M10.2783057,11.712968 L11.4719777,15.3939399 L8.13680744,21.2579185 L10.2783057,11.712968 Z M20.777034,15.3939399 L21.9708586,11.712968 L24.1122042,21.2579185 L20.777034,15.3939399 Z M20.5011251,16.2448623 L24.4728085,23.2280419 L16.7124145,27.9276485 L20.5011251,16.2448623 Z M15.5367498,27.9276485 L7.77620313,23.2280419 L11.7478865,16.2448623 L15.5367498,27.9276485 Z M16.1245821,8.54978296 L20.0588774,15.4673426 L16.1245821,27.5990912 L12.1901342,15.4673426 L16.1245821,8.54978296 Z M15.7943461,7.79439094 L11.9142254,14.6164202 L10.5862615,10.5212798 L15.7943461,3.34734468 L15.7943461,7.79439094 Z M16.4548182,3.34734468 L21.6629028,10.5212798 L20.3347863,14.6164202 L16.4548182,7.79439094 L16.4548182,3.34734468 Z M25.2410193,23.2716868 L22.3511489,10.3909556 C22.3412296,10.3470056 22.3226118,10.3056498 22.2962113,10.2693299 L16.3919451,2.13627577 C16.3296825,2.05066468 16.230337,2 16.1245821,2 C16.0188272,2 15.9193291,2.05066468 15.8572191,2.13627577 L9.95295299,10.2693299 C9.92655242,10.3056498 9.90778207,10.3470056 9.89786279,10.3909556 L7.00799233,23.2716868 C6.97701363,23.4102516 7.0379028,23.5530894 7.15922334,23.6266447 L15.9533599,28.9523874 C15.9573277,28.9546765 15.961448,28.9563551 15.9654157,28.9584916 C15.9710621,28.9615437 15.9767084,28.9645958 15.98266,28.9673426 C15.9918163,28.9717682 16.0009725,28.9755833 16.0105866,28.9790932 C16.0163856,28.9812297 16.0220319,28.9833661 16.0279835,28.9851974 C16.0385132,28.9884021 16.0488903,28.9906911 16.0595726,28.9928276 C16.0649138,28.9938958 16.0702549,28.9954219 16.0755961,28.9961849 C16.0917722,28.9986266 16.1082535,29 16.1245821,29 C16.1409108,29 16.1572395,28.9986266 16.1734156,28.9961849 C16.1789093,28.9954219 16.1840979,28.9938958 16.189439,28.9928276 C16.2001213,28.9906911 16.210651,28.9884021 16.2210281,28.9851974 C16.2269797,28.9833661 16.2327787,28.9812297 16.2387303,28.9790932 C16.2480391,28.9755833 16.257348,28.9717682 16.2665043,28.9673426 C16.2723032,28.9645958 16.2779496,28.9615437 16.2837486,28.9584916 C16.2875637,28.9563551 16.291684,28.9546765 16.2956517,28.9523874 L25.0899409,23.6266447 C25.2112615,23.5530894 25.2721506,23.4102516 25.2410193,23.2716868 Z" id="Fill-628" fill="#353944"></path>
            </g>
        </g>
    </g>
</svg>