<?xml version="1.0" encoding="UTF-8"?>
<svg width="26px" height="26px" viewBox="0 0 26 26" version="1.1" xmlns="http://www.w3.org/2000/svg" xmlns:xlink="http://www.w3.org/1999/xlink">
    <!-- Generator: Sketch 48.2 (47327) - http://www.bohemiancoding.com/sketch -->
    <title>svg/Icons/Top/Notifications</title>
    <desc>Created with Sketch.</desc>
    <defs>
        <path d="M15.0019792,20 C14.5883402,21.2336087 13.826336,21.9929126 13.0019792,21.9929126 C12.1776224,21.9929126 11.4156182,21.2336087 11.0019792,20 L15.0019792,20 Z M20.0019792,18.9999999 L6.00197921,19 C5.12859639,19 4.67491007,17.9589503 5.26949745,17.3192133 C5.30619081,17.2797337 5.37921587,17.1971951 5.4760975,17.0806723 C5.63995564,16.8835944 5.80397083,16.66969 5.95539015,16.4491728 C6.16173267,16.1486691 6.32616421,15.8621162 6.43259035,15.6093858 C6.51751355,15.4077185 6.55753476,15.2454778 6.55753476,15.1428571 L6.55753476,10.9999999 C6.55753481,7.66638056 9.46092702,5 13.0019792,5 C16.5430314,5 19.4464236,7.66638056 19.4464236,10.9999999 L19.4464236,15.1428571 C19.4464236,15.6239673 19.8531039,16.370931 20.7344609,17.3192132 C21.3290483,17.9589502 20.875362,18.9999999 20.0019792,18.9999999 Z M17.9968738,17 C17.6334694,16.3559119 17.4464236,15.7403413 17.4464236,15.1428571 L17.4464236,10.9999999 C17.4464236,8.81077185 15.4746942,7 13.0019792,7 C10.5292642,7 8.55753479,8.81077185 8.55753476,10.9999999 L8.55753476,15.1428571 C8.55753476,15.5460757 8.45597655,15.9577794 8.27582624,16.3855826 C8.19028485,16.5887179 8.0876772,16.7936277 7.97017873,17 C8.36553223,17 8.86397606,17 9.50197919,17 C13.1076831,17 13.529444,17 17.9968738,17 Z" id="path-1"></path>
    </defs>
    <g id="Symbols" stroke="none" stroke-width="1" fill="none" fill-rule="evenodd">
        <g id="Icons/Top/Notifications">
            <rect id="base" opacity="0" x="0" y="0" width="26" height="26"></rect>
            <mask id="mask-2" fill="white">
                <use xlink:href="#path-1"></use>
            </mask>
            <use id="Shape" fill="#000000" xlink:href="#path-1"></use>
            <g id="Colors/Text" mask="url(#mask-2)" fill="#FFFFFF">
                <rect id="Color" x="0" y="0" width="26" height="26"></rect>
            </g>
        </g>
    </g>
</svg>